<svg xmlns="http://www.w3.org/2000/svg" viewBox="0 0 240 240" role="img" aria-label="QLD stamp icon">
  <defs>
    <style>
      .stamp{fill:none;stroke:#8b0b16;stroke-linecap:round;stroke-linejoin:round}
      .red{fill:#8b0b16}
      .text{font-family:Impact,'Arial Black',system-ui,sans-serif;font-size:88px;font-weight:900;letter-spacing:1px}
      .rough{opacity:.96}
    </style>
    <filter id="roughen" x="-8%" y="-8%" width="116%" height="116%">
      <feTurbulence type="fractalNoise" baseFrequency="0.95" numOctaves="2" seed="8" result="noise"/>
      <feDisplacementMap in="SourceGraphic" in2="noise" scale="1.4"/>
    </filter>
    <mask id="distress">
      <rect width="240" height="240" fill="white"/>
      <g fill="black" opacity=".42">
        <circle cx="43" cy="51" r="2.1"/><circle cx="58" cy="47" r="1.5"/><circle cx="83" cy="38" r="1.8"/><circle cx="114" cy="43" r="1.4"/><circle cx="147" cy="39" r="1.9"/><circle cx="188" cy="55" r="2.2"/>
        <circle cx="64" cy="81" r="1.7"/><circle cx="97" cy="76" r="2.4"/><circle cx="137" cy="84" r="1.6"/><circle cx="178" cy="78" r="2.1"/>
        <circle cx="52" cy="119" r="2.2"/><circle cx="88" cy="114" r="1.5"/><circle cx="121" cy="126" r="2.6"/><circle cx="159" cy="117" r="1.9"/><circle cx="197" cy="126" r="1.4"/>
        <circle cx="68" cy="158" r="1.5"/><circle cx="103" cy="169" r="2.1"/><circle cx="145" cy="160" r="1.7"/><circle cx="178" cy="171" r="2.4"/>
        <circle cx="47" cy="195" r="2.6"/><circle cx="82" cy="203" r="1.4"/><circle cx="118" cy="198" r="2.2"/><circle cx="155" cy="205" r="1.6"/><circle cx="197" cy="190" r="2.5"/>
        <path d="M74 55h11M133 61h15M173 101h10M74 135h16M132 146h11M55 183h17M161 191h13" stroke="black" stroke-width="2" stroke-linecap="round"/>
      </g>
    </mask>
  </defs>
  <g class="rough" filter="url(#roughen)" mask="url(#distress)">
    <circle class="stamp" cx="120" cy="120" r="94" stroke-width="9"/>
    <circle class="stamp" cx="120" cy="120" r="80" stroke-width="3.5"/>
    <path class="stamp" d="M36 109a86 86 0 0 1 168 0" stroke-width="5"/>
    <path class="stamp" d="M36 131a86 86 0 0 0 168 0" stroke-width="5"/>
    <path class="red" d="m49 112 5.4 11 12.1 1.8-8.8 8.6 2.1 12.1-10.8-5.7-10.8 5.7 2.1-12.1-8.8-8.6 12.1-1.8z"/>
    <path class="red" d="m191 112 5.4 11 12.1 1.8-8.8 8.6 2.1 12.1-10.8-5.7-10.8 5.7 2.1-12.1-8.8-8.6 12.1-1.8z"/>
    <text class="text red" x="120" y="147" text-anchor="middle">QLD</text>
  </g>
</svg>
